<?xml version="1.0" encoding="UTF-8" standalone="no"?>
<svg width="600px" height="510px" viewBox="0 0 600 510" version="1.1" xmlns="http://www.w3.org/2000/svg" xmlns:xlink="http://www.w3.org/1999/xlink" xmlns:sketch="http://www.bohemiancoding.com/sketch/ns">
    <!-- Generator: Sketch 3.1.1 (8761) - http://www.bohemiancoding.com/sketch -->
    <title>screenie-plan</title>
    <desc>Created with Sketch.</desc>
    <defs>
        <rect id="path-1" x="-1.35673872e-14" y="-0.275337838" width="180" height="120"></rect>
        <rect id="path-3" x="0" y="0" width="35" height="17.5"></rect>
    </defs>
    <g id="Page-1" stroke="none" stroke-width="1" fill="none" fill-rule="evenodd" sketch:type="MSPage">
        <g id="Desktop-HD" sketch:type="MSArtboardGroup" transform="translate(-680.000000, -1693.000000)">
            <g id="Section-plans" sketch:type="MSLayerGroup" transform="translate(0.000000, 1593.000000)">
                <g id="screenie-plan" transform="translate(680.000000, 100.000000)">
                    <g id="shadow" transform="translate(300.000000, 255.500000) scale(-1, 1) translate(-300.000000, -255.500000) translate(0.000000, 1.000000)" fill-opacity="0.5" fill="#CECECE" sketch:type="MSShapeGroup">
                        <path d="M490.166916,509 L600,416.8391 L600,415.427219 L251.415173,-3.55271368e-15 L105.193741,0 L-2.13162821e-14,88.2680296 L0,509 L490.166916,509 Z" id="background"></path>
                    </g>
                    <g id="Browser" sketch:type="MSShapeGroup">
                        <rect id="background" stroke="#DEDEDE" fill="#F5F5F5" x="0" y="41.5287162" width="500" height="375"></rect>
                        <path d="M6.99651398,0 C3.13244601,0 0,3.13842658 0,6.99782015 L0,41.5287162 L500,41.5287162 L500,6.99782015 C500,3.1330308 496.87222,0 493.003486,0 L6.99651398,0 Z" id="background" stroke="#DEDEDE" fill="#DFDFDF"></path>
                        <ellipse id="object" opacity="0.5" fill="#E96E4C" cx="19.2307692" cy="20.7643581" rx="5.6561086" ry="5.66300676"></ellipse>
                        <path d="M36.5761689,26.4273649 C39.6999515,26.4273649 42.2322775,23.8919504 42.2322775,20.7643581 C42.2322775,17.6367658 39.6999515,15.1013514 36.5761689,15.1013514 C33.4523864,15.1013514 30.9200603,17.6367658 30.9200603,20.7643581 C30.9200603,23.8919504 33.4523864,26.4273649 36.5761689,26.4273649 Z" id="object" opacity="0.5" fill="#E6AA34"></path>
                        <ellipse id="object" opacity="0.5" fill="#85C33D" cx="53.9215686" cy="20.7643581" rx="5.6561086" ry="5.66300676"></ellipse>
                        <rect id="search" opacity="0.899999976" fill="#FFFFFF" x="73.1523379" y="10.5709459" width="408.748115" height="20.3868243"></rect>
                    </g>
                    <g id="Program-UI" transform="translate(81.000000, 57.000000)">
                        <rect id="background" stroke="#DDDDDD" fill="#FFFFFF" sketch:type="MSShapeGroup" x="-0.306184012" y="-0.0439189189" width="338.612368" height="330.043919" rx="3"></rect>
                        <g id="Group" transform="translate(25.000000, 30.000000)">
                            <text id="1" sketch:type="MSTextLayer" font-family="Bitter" font-size="23" font-weight="bold" line-spacing="23" fill="#666666">
                                <tspan x="16" y="22">1</tspan>
                            </text>
                            <rect id="Rectangle-2" fill="#CACBCC" sketch:type="MSShapeGroup" x="49.0196078" y="0" width="236.536953" height="7.55067568"></rect>
                            <rect id="Rectangle-2" fill="#CACBCC" sketch:type="MSShapeGroup" x="49.0196078" y="15.1013514" width="210.829563" height="7.55067568"></rect>
                            <rect id="Rectangle-2" fill="#CACBCC" sketch:type="MSShapeGroup" x="49.0196078" y="30.2027027" width="130.829563" height="7.55067568"></rect>
                        </g>
                        <g id="Group" transform="translate(25.000000, 84.000000)">
                            <text id="2" sketch:type="MSTextLayer" font-family="Bitter" font-size="23" font-weight="bold" line-spacing="23" fill="#666666">
                                <tspan x="15" y="22">2</tspan>
                            </text>
                            <rect id="Rectangle-2" fill="#CACBCC" sketch:type="MSShapeGroup" x="49.0196078" y="0" width="236.536953" height="7.55067568"></rect>
                            <rect id="Rectangle-2" fill="#F4F4F4" sketch:type="MSShapeGroup" x="49" y="14.7246622" width="180" height="120"></rect>
                            <g id="New-Mask-Group" transform="translate(49.000000, 15.000000)">
                                <mask id="mask-2" sketch:name="Mask" fill="white">
                                    <use xlink:href="#path-1"></use>
                                </mask>
                                <use id="Mask" sketch:type="MSShapeGroup" xlink:href="#path-1"></use>
                                <rect id="Rectangle-91" fill="#E8E8E8" sketch:type="MSShapeGroup" mask="url(#mask-2)" x="-20.2744617" y="-27.0931357" width="198.815223" height="60.4059219">
                                    <g transform="translate(79.133150, 3.109825) rotate(-19.000000) translate(-79.133150, -3.109825) "></g>
                                </rect>
                            </g>
                            <circle id="Oval-10" fill="#F2E360" sketch:type="MSShapeGroup" cx="139.5" cy="75.5" r="17.5"></circle>
                            <path d="M134.160499,82.9647575 C134.267764,83.0164293 134.410783,83.0164293 134.553008,82.9300525 L147.767991,75.7977918 C147.92849,75.711415 148,75.6250381 148,75.5039563 C148,75.3821032 147.92849,75.2787595 147.767991,75.2093495 L134.553008,68.0770888 C134.410783,67.990712 134.267764,67.9737451 134.160499,68.0423839 C134.05403,68.1117938 134,68.2159088 134,68.3894337 L134,82.6184788 C134,82.7742656 134.05403,82.8953475 134.160499,82.9647575" id="Fill-1" fill="#555555" sketch:type="MSShapeGroup"></path>
                            <g id="Oval-10" transform="translate(139.500000, 66.500000) scale(1, -1) translate(-139.500000, -66.500000) translate(122.000000, 57.500000)">
                                <mask id="mask-4" sketch:name="Mask" fill="white">
                                    <use xlink:href="#path-3"></use>
                                </mask>
                                <use id="Mask" sketch:type="MSShapeGroup" xlink:href="#path-3"></use>
                                <ellipse fill-opacity="0.5" fill="#DDDDDD" sketch:type="MSShapeGroup" mask="url(#mask-4)" cx="17.5" cy="-0.514705882" rx="17.5" ry="18.0147059"></ellipse>
                            </g>
                        </g>
                        <g id="Group" transform="translate(25.000000, 234.000000)">
                            <text id="3" sketch:type="MSTextLayer" font-family="Bitter" font-size="23" font-weight="bold" line-spacing="23" fill="#666666">
                                <tspan x="15" y="22">3</tspan>
                            </text>
                            <rect id="Rectangle-2" fill="#CACBCC" sketch:type="MSShapeGroup" x="49.0196078" y="0" width="236.536953" height="7.55067568"></rect>
                            <rect id="Rectangle-2" fill="#CACBCC" sketch:type="MSShapeGroup" x="49.0196078" y="15.3918919" width="130.829563" height="7.55067568"></rect>
                            <rect id="Rectangle-2" fill="#CACBCC" sketch:type="MSShapeGroup" x="49" y="30.3918919" width="130.829563" height="7.55067568"></rect>
                            <rect id="Rectangle-2" fill="#CACBCC" sketch:type="MSShapeGroup" x="50" y="45.7837838" width="130.829563" height="7.55067568"></rect>
                            <rect id="Rectangle-2" fill="#CACBCC" sketch:type="MSShapeGroup" x="50" y="61.1756757" width="130.829563" height="7.55067568"></rect>
                        </g>
                    </g>
                </g>
            </g>
        </g>
    </g>
</svg>